<svg width="48" height="47" viewBox="0 0 48 47" fill="none" xmlns="http://www.w3.org/2000/svg">
<path d="M45.3196 37.1417C46.1137 37.1417 46.9077 37.1417 47.7017 36.7393V44.7874C45.7166 45.391 43.136 45.9946 40.7539 45.9946C36.3867 45.9946 33.012 44.385 31.2254 41.1658C26.8582 44.385 21.8955 46.397 15.3447 46.1958C7.20577 46.1958 0.0594362 41.367 0.257946 32.9165C0.456456 22.0516 10.779 18.8323 19.5134 18.8323C22.888 18.8323 26.8582 19.4359 29.8359 20.0396V18.4299C29.8359 14.2047 26.4612 11.1867 19.5134 11.1867C13.5581 11.1867 8.19832 12.5951 4.02962 14.2047V3.541C7.60279 2.33378 14.3521 0.724168 20.9029 0.92537C34.0046 1.12657 42.342 6.35782 42.1435 20.442L41.945 34.1237C42.342 36.5381 43.7316 37.1417 45.3196 37.1417ZM11.3745 32.3129C11.3745 35.7333 14.5506 38.1477 18.9178 38.1477C22.888 38.1477 26.4612 37.1417 29.8359 34.5261V27.2828C27.6523 26.6792 24.4761 26.0756 21.697 26.0756C16.3372 26.0756 11.3745 27.6852 11.3745 32.3129Z" fill="white"/>
</svg>
